HIERARCHY
ROOT Hips
{
	OFFSET 0.000000 0.000000 0.000000
	CHANNELS 6 Xposition Yposition Zposition Xrotation Yrotation Zrotation
	JOINT LeftUpLeg_virtual
	{
		OFFSET 0.000000 0.000000 0.000000
		CHANNELS 3 Xrotation Yrotation Zrotation
		JOINT LeftUpLeg
		{
			OFFSET 15.427100 -6.655098 0.678600
			CHANNELS 3 Xrotation Yrotation Zrotation
			JOINT LeftLeg
			{
				OFFSET 4.081073 -39.591068 13.024000
				CHANNELS 3 Xrotation Yrotation Zrotation
				JOINT LeftFoot
				{
					OFFSET -4.081074 -37.707932 -15.979700
					CHANNELS 3 Xrotation Yrotation Zrotation
					JOINT LeftToeBase
					{
						OFFSET 5.346399 -15.068900 20.645000
						CHANNELS 3 Xrotation Yrotation Zrotation
						JOINT LeftToe_End
						{
							OFFSET 2.754700 0.931300 11.300900
							CHANNELS 3 Xrotation Yrotation Zrotation
							End Site
							{
								OFFSET 0 0 0
							}
						}
					}
				}
			}
		}
	}
	JOINT RightUpLeg_virtual
	{
		OFFSET 0.000000 0.000000 0.000000
		CHANNELS 3 Xrotation Yrotation Zrotation
		JOINT RightUpLeg
		{
			OFFSET -15.569500 -6.655098 0.678600
			CHANNELS 3 Xrotation Yrotation Zrotation
			JOINT RightLeg
			{
				OFFSET -4.081825 -39.591045 13.023800
				CHANNELS 3 Xrotation Yrotation Zrotation
				JOINT RightFoot
				{
					OFFSET 4.081824 -37.707954 -15.979600
					CHANNELS 3 Xrotation Yrotation Zrotation
					JOINT RightToeBase
					{
						OFFSET -5.346400 -15.068900 20.645000
						CHANNELS 3 Xrotation Yrotation Zrotation
						JOINT RightToe_End
						{
							OFFSET -2.754700 0.931300 11.300900
							CHANNELS 3 Xrotation Yrotation Zrotation
							End Site
							{
								OFFSET 0 0 0
							}
						}
					}
				}
			}
		}
	}
	JOINT Spine_virtual
	{
		OFFSET 0.000000 0.000000 0.000000
		CHANNELS 3 Xrotation Yrotation Zrotation
		JOINT Spine
		{
			OFFSET -0.279200 12.230698 -2.892100
			CHANNELS 3 Xrotation Yrotation Zrotation
			JOINT Spine1
			{
				OFFSET -0.232667 10.192268 -1.242267
				CHANNELS 3 Xrotation Yrotation Zrotation
				JOINT Spine1_split
				{
					OFFSET -0.232667 10.192268 -1.242267
					CHANNELS 3 Xrotation Yrotation Zrotation
					JOINT Spine2
					{
						OFFSET -0.232667 10.192268 -1.242267
						CHANNELS 3 Xrotation Yrotation Zrotation
						JOINT Neck_virtual
						{
							OFFSET 0.000000 0.000000 0.000000
							CHANNELS 3 Xrotation Yrotation Zrotation
							JOINT Neck
							{
								OFFSET -0.418800 17.814194 8.416900
								CHANNELS 3 Xrotation Yrotation Zrotation
								JOINT Head
								{
									OFFSET 0.000000 7.031097 3.806800
									CHANNELS 3 Xrotation Yrotation Zrotation
									JOINT HeadTop_End
									{
										OFFSET 0.000000 24.646606 12.978600
										CHANNELS 3 Xrotation Yrotation Zrotation
										End Site
										{
											OFFSET 0 0 0
										}
									}
								}
							}
						}
						JOINT LeftShoulder_virtual
						{
							OFFSET 0.000000 0.000000 0.000000
							CHANNELS 3 Xrotation Yrotation Zrotation
							JOINT LeftShoulder
							{
								OFFSET 8.476499 7.247704 -3.868750
								CHANNELS 3 Xrotation Yrotation Zrotation
								JOINT LeftShoulder_split
								{
									OFFSET 8.476499 7.247704 -3.868750
									CHANNELS 3 Xrotation Yrotation Zrotation
									JOINT LeftArm
									{
										OFFSET 9.308998 -2.777710 0.208600
										CHANNELS 3 Xrotation Yrotation Zrotation
										JOINT LeftForeArm
										{
											OFFSET 29.972298 0.000000 0.000000
											CHANNELS 3 Xrotation Yrotation Zrotation
											JOINT LeftHand
											{
												OFFSET 26.026505 0.000000 0.000000
												CHANNELS 3 Xrotation Yrotation Zrotation
												End Site
												{
													OFFSET 0 0 0
												}
											}
										}
									}
								}
							}
						}
						JOINT RightShoulder_virtual
						{
							OFFSET 0.000000 0.000000 0.000000
							CHANNELS 3 Xrotation Yrotation Zrotation
							JOINT RightShoulder
							{
								OFFSET -7.570500 7.247704 -3.868750
								CHANNELS 3 Xrotation Yrotation Zrotation
								JOINT RightShoulder_split
								{
									OFFSET -7.570500 7.247704 -3.868750
									CHANNELS 3 Xrotation Yrotation Zrotation
									JOINT RightArm
									{
										OFFSET -9.308998 -2.777710 0.208500
										CHANNELS 3 Xrotation Yrotation Zrotation
										JOINT RightForeArm
										{
											OFFSET -29.972300 0.000000 0.000000
											CHANNELS 3 Xrotation Yrotation Zrotation
											JOINT RightHand
											{
												OFFSET -26.026505 0.000000 0.000000
												CHANNELS 3 Xrotation Yrotation Zrotation
												End Site
												{
													OFFSET 0 0 0
												}
											}
										}
									}
								}
							}
						}
					}
				}
			}
		}
	}
}
MOTION
Frames: 11
Frame Time: 0.03333333
-16.248636 75.409920 -2.633591 0.000000 0.000000 0.000000 -7.349702 -46.624449 2.335854 -21.074154 9.169657 25.508467 45.123204 -5.640282 9.300349 -24.914042 -9.255290 -28.265201 -5.287176 0.157057 -0.364554 0.000000 0.000000 0.000000 -9.066336 -42.250225 3.064937 -22.808793 -2.657446 -43.407877 49.648389 -5.642530 -13.017287 -11.804419 -8.449000 27.185954 -3.351301 1.230885 1.083522 0.000000 0.000000 0.000000 -6.509868 -43.894388 3.233098 10.410300 7.947738 -1.839146 2.331770 0.554399 -2.318869 0.483905 -1.500568 0.861853 0.000000 0.000000 0.000000 2.717064 0.402128 -1.982984 0.420815 13.440799 1.862866 11.118026 17.903138 0.094129 0.000000 0.000000 0.000000 3.223066 0.302015 -2.290503 1.995629 -2.352380 -12.933057 -2.141995 -3.257599 0.030201 -68.487700 -0.565366 -39.980642 178.598300 -75.632146 -179.759924 0.000000 0.000000 0.000000 3.759263 0.468264 -2.102918 3.314509 10.964801 -12.804988 -1.481576 0.624697 1.676887 -65.981212 20.041918 88.149281 -22.638490 85.655435 20.191294 0.000000 0.000000 0.000000 
-17.834455 75.716202 -3.050652 0.000000 0.000000 0.000000 -7.932094 -48.353860 2.135632 -20.258529 7.574972 25.775151 45.559315 -4.756385 10.036853 -22.029684 -8.354517 -27.329098 -5.908092 0.345172 -1.882508 0.000000 0.000000 0.000000 -9.769119 -43.220095 2.889127 -22.543961 -3.351926 -43.324891 50.285185 -6.288281 -12.846122 -14.452791 -8.036739 25.878800 -1.848755 1.297186 1.525280 0.000000 0.000000 0.000000 -7.199049 -44.941965 3.144710 10.452892 7.613647 -1.995499 2.344020 0.065521 -2.413204 0.502561 -0.943973 1.047886 0.000000 0.000000 0.000000 2.651076 -0.151357 -2.051450 0.934446 13.594255 1.774515 11.384903 18.407886 -0.628692 0.000000 0.000000 0.000000 3.183853 -0.222960 -2.421058 2.093465 -0.984981 -12.680708 -1.958009 -3.294768 0.387757 -68.090409 -1.033237 -41.448720 178.719331 -74.676780 -179.471567 0.000000 0.000000 0.000000 3.644965 -0.039797 -2.171181 3.168939 10.109343 -13.546056 -0.956428 0.724591 1.284586 -66.970756 18.635077 88.441893 -26.133654 85.956346 23.514938 0.000000 0.000000 0.000000 
-19.284180 76.665535 -3.217316 0.000000 0.000000 0.000000 -8.373800 -49.090277 1.926689 -20.224597 6.114837 25.948478 46.347188 -4.519049 10.528854 -17.850781 -8.609531 -27.231087 -8.359653 0.463406 -2.878244 0.000000 0.000000 0.000000 -10.359014 -43.972140 2.674236 -22.090109 -4.585697 -42.795742 50.149698 -7.083535 -12.547731 -16.528875 -7.461345 24.511872 -0.822177 1.406397 1.719491 0.000000 0.000000 0.000000 -7.314785 -45.712366 3.156326 10.275982 7.274183 -1.977157 2.251240 -0.434496 -2.432918 0.487514 -0.462992 0.986027 0.000000 0.000000 0.000000 2.545109 -0.662002 -2.064283 1.354832 13.685402 1.866597 11.441601 18.982259 -1.499594 0.000000 0.000000 0.000000 3.096535 -0.713192 -2.474558 2.136878 -0.266943 -12.424285 -1.609234 -2.848743 0.434831 -66.566129 -1.519239 -43.100864 179.010570 -73.898924 -179.164755 0.000000 0.000000 0.000000 3.468713 -0.509693 -2.166473 3.017191 9.143182 -13.832902 -0.490835 0.738245 0.855896 -67.899068 17.022165 88.879271 -41.049929 87.300637 38.376210 0.000000 0.000000 0.000000 
-20.525963 77.953033 -3.205452 0.000000 0.000000 0.000000 -8.580420 -48.914359 1.812793 -20.747704 5.656678 25.627169 46.926330 -4.559670 10.417679 -14.199905 -9.727831 -27.156094 -11.966993 0.425658 -2.927992 0.000000 0.000000 0.000000 -10.718348 -44.575283 2.463473 -21.377691 -6.029587 -41.888707 48.970612 -7.704735 -12.406239 -17.382840 -6.660087 23.951539 -1.226721 1.489073 1.647444 0.000000 0.000000 0.000000 -6.971762 -46.210174 3.300809 9.953100 7.052247 -1.809705 2.087279 -0.799834 -2.395288 0.452443 -0.131424 0.836007 0.000000 0.000000 0.000000 2.450433 -0.977309 -2.050696 1.575597 13.676854 2.084285 11.167404 19.496037 -2.378173 0.000000 0.000000 0.000000 2.985282 -1.023592 -2.452941 2.109188 -0.223351 -12.293372 -1.199444 -2.128906 0.113314 -63.797983 -2.011843 -44.692667 179.400629 -73.398169 -178.905973 0.000000 0.000000 0.000000 3.306799 -0.809691 -2.117176 2.871027 8.174370 -13.518417 -0.173556 0.512507 0.501928 -67.865750 15.866690 89.240274 -115.294590 88.223477 112.720579 0.000000 0.000000 0.000000 
-21.552208 79.267883 -3.080303 0.000000 0.000000 0.000000 -8.561791 -48.209541 1.824749 -21.661697 6.313225 24.701770 47.277487 -4.745350 9.719981 -12.591901 -11.108274 -26.751522 -14.715615 0.143377 -2.060023 0.000000 0.000000 0.000000 -10.643253 -44.934537 2.392935 -20.323132 -7.565280 -40.434723 46.903896 -8.262966 -12.596326 -17.462191 -6.046875 23.743426 -2.131502 1.524838 1.413247 0.000000 0.000000 0.000000 -6.391454 -46.424482 3.507843 9.613513 6.996720 -1.573322 1.877129 -0.919969 -2.296717 0.342708 0.009281 0.676513 0.000000 0.000000 0.000000 2.386793 -1.014848 -2.016166 1.491400 13.530653 2.334673 10.638704 19.864857 -3.201614 0.000000 0.000000 0.000000 2.870842 -1.068371 -2.346193 2.032409 -0.739285 -12.323785 -0.920624 -1.325514 -0.216106 -59.901223 -2.281186 -45.915352 -179.975239 -73.192922 -178.484632 0.000000 0.000000 0.000000 3.206992 -0.853868 -2.008733 2.767469 7.380140 -12.626796 -0.028775 0.218840 0.310127 -66.491639 15.637054 89.361933 -163.354643 85.545039 161.040602 0.000000 0.000000 0.000000 
-22.434845 80.234924 -2.831421 0.000000 0.000000 0.000000 -8.308898 -47.584992 1.919299 -23.008491 7.838655 23.388408 47.732439 -5.015902 8.480158 -13.364144 -12.279907 -26.097212 -14.492896 -0.284581 -0.739675 0.000000 0.000000 0.000000 -10.171087 -45.132732 2.473267 -19.133566 -8.966181 -38.605506 44.619143 -8.854720 -12.961174 -17.665043 -5.865375 23.256688 -2.195543 1.531189 1.168585 0.000000 0.000000 0.000000 -5.773874 -46.535134 3.705626 9.346112 7.146140 -1.339867 1.665107 -0.759202 -2.120045 0.309116 -0.117880 0.549166 0.000000 0.000000 0.000000 2.327161 -0.758605 -1.920669 1.146795 13.279425 2.503614 9.938629 20.050063 -3.870517 0.000000 0.000000 0.000000 2.771830 -0.834653 -2.145532 1.932046 -1.509127 -12.376552 -0.754140 -0.649727 -0.398246 -55.639442 -2.121451 -46.680197 -179.367707 -73.331213 -178.101923 0.000000 0.000000 0.000000 3.204127 -0.607535 -1.842509 2.756453 6.979076 -11.305776 -0.149034 -0.155599 0.379160 -63.819566 16.674467 89.186390 -173.534247 82.176342 171.587603 0.000000 0.000000 0.000000 
-23.260002 80.660049 -2.527798 0.000000 0.000000 0.000000 -7.815085 -47.644726 2.053960 -24.851377 9.628866 22.188310 48.450459 -5.322810 6.987479 -15.476152 -13.209833 -25.333105 -11.696789 -0.666975 0.736818 0.000000 0.000000 0.000000 -9.515076 -45.214640 2.570648 -18.227611 -9.982475 -36.752275 43.323548 -9.568001 -13.278211 -18.329315 -6.130854 22.323037 -1.511567 1.506659 1.031300 0.000000 0.000000 0.000000 -5.249899 -46.593075 3.829646 9.217358 7.468111 -1.201881 1.504572 -0.357463 -1.860621 0.288078 -0.476956 0.708743 0.000000 0.000000 0.000000 2.327701 -0.284144 -1.742302 0.632242 13.005436 2.559244 9.199800 20.078077 -4.362479 0.000000 0.000000 0.000000 2.711994 -0.385728 -1.853582 1.835442 -2.148134 -12.406660 -0.950509 -0.297093 -0.425956 -51.814467 -1.289831 -47.047296 -178.985517 -73.512342 -177.921619 0.000000 0.000000 0.000000 3.237388 -0.154743 -1.605225 2.797706 7.025574 -9.811340 -0.448030 -0.426449 0.723327 -60.392369 18.742787 88.672507 -177.284062 79.107975 175.735986 0.000000 0.000000 0.000000 
-24.178118 80.594658 -2.244820 0.000000 0.000000 0.000000 -7.183251 -48.470697 2.148749 -26.504112 10.906568 21.118071 49.273087 -5.629114 5.739440 -17.738985 -13.802814 -24.425038 -8.855461 -0.950085 2.383943 0.000000 0.000000 0.000000 -8.845859 -45.317639 2.611114 -17.879456 -10.408846 -35.207416 43.592812 -10.218537 -13.478188 -19.038302 -6.651718 21.427909 -1.079643 1.459456 0.993251 0.000000 0.000000 0.000000 -4.841885 -46.711609 3.766674 9.250074 7.855833 -1.213472 1.397696 0.175948 -1.560516 0.425797 -1.022282 0.931948 0.000000 0.000000 0.000000 2.385362 0.274854 -1.488234 0.133430 12.805785 2.496054 8.643337 20.148495 -4.716856 0.000000 0.000000 0.000000 2.662739 0.143194 -1.532058 1.760889 -2.422366 -12.237101 -1.386456 -0.148946 -0.262434 -49.247877 0.293858 -47.292950 -178.864172 -73.477768 -177.946864 0.000000 0.000000 0.000000 3.234170 0.381118 -1.316823 2.874114 7.453395 -8.431723 -0.830212 -0.472216 1.251393 -56.954902 21.239187 87.869578 -178.876808 76.659284 177.686606 0.000000 0.000000 0.000000 
-25.229357 80.126862 -1.810173 0.000000 0.000000 0.000000 -6.405481 -49.707453 2.129274 -27.386533 11.236346 20.082255 49.816985 -5.534564 4.966030 -19.949470 -13.663246 -22.976999 -7.437016 -1.096364 3.558954 0.000000 0.000000 0.000000 -8.257294 -45.700099 2.487589 -18.146103 -10.158250 -34.218315 45.250560 -10.458000 -13.575341 -19.614360 -7.080443 21.220332 -1.175550 1.408402 1.031719 0.000000 0.000000 0.000000 -4.566992 -46.916890 3.470362 9.360632 8.233238 -1.351731 1.322396 0.702236 -1.274290 0.699379 -1.554262 1.154583 0.000000 0.000000 0.000000 2.471921 0.768613 -1.194512 -0.219226 12.740194 2.395872 8.330987 20.337928 -4.922772 0.000000 0.000000 0.000000 2.620557 0.621146 -1.228846 1.726218 -2.144148 -11.731395 -1.950506 -0.280404 -0.351167 -48.332433 2.243798 -47.582383 -179.073763 -73.263498 -178.253034 0.000000 0.000000 0.000000 3.157174 0.851542 -1.041344 2.969720 8.124903 -7.399087 -1.193637 -0.319107 1.803232 -54.090764 23.520781 86.998162 -179.472906 74.784807 178.568247 0.000000 0.000000 0.000000 
-26.283993 79.403397 -1.464806 0.000000 0.000000 0.000000 -5.646639 -50.864572 1.923770 -27.672648 10.915506 19.341550 50.034646 -4.696596 4.560995 -22.266313 -12.616416 -20.738070 -6.836905 -1.032761 3.392842 0.000000 0.000000 0.000000 -7.680764 -46.446905 2.196464 -18.665698 -9.501741 -33.651150 47.522595 -10.248298 -13.688421 -20.297910 -7.330833 21.636487 -1.372398 1.373813 1.148846 0.000000 0.000000 0.000000 -4.325967 -47.237708 2.987786 9.512231 8.535532 -1.561875 1.253542 1.099639 -1.048684 0.856718 -1.799239 1.215978 0.000000 0.000000 0.000000 2.526236 1.085435 -0.934558 -0.403442 12.806858 2.375626 8.356574 20.649311 -5.014411 0.000000 0.000000 0.000000 2.594505 0.947684 -0.983294 1.733338 -1.368585 -10.869996 -2.343941 -0.484321 -0.761079 -48.992233 3.972241 -48.015677 -179.535115 -72.885871 -178.777825 0.000000 0.000000 0.000000 3.009643 1.141669 -0.830023 3.080185 8.877374 -6.771862 -1.339290 -0.010730 2.053898 -52.157561 25.009158 86.330224 -179.704039 73.216172 179.039899 0.000000 0.000000 0.000000 
-27.235090 78.629410 -1.091652 0.000000 0.000000 0.000000 -5.131523 -51.705502 1.468967 -27.613499 10.279864 19.127808 50.307386 -3.362678 4.518209 -24.332491 -10.942423 -18.533667 -5.349491 -0.710767 1.647904 0.000000 0.000000 0.000000 -7.110131 -47.551449 1.782261 -19.033012 -8.745308 -33.261710 49.571191 -9.865949 -13.853554 -21.184339 -7.516744 22.025067 -1.187754 1.386777 1.329194 0.000000 0.000000 0.000000 -4.027466 -47.697578 2.425463 9.662687 8.731462 -1.798253 1.158446 1.329798 -0.921006 1.046391 -1.603682 0.950353 0.000000 0.000000 0.000000 2.462260 1.186539 -0.763271 -0.370252 12.939810 2.468888 8.700041 21.115815 -5.036645 0.000000 0.000000 0.000000 2.549318 1.083956 -0.835536 1.760548 -0.287713 -9.639896 -2.339009 -0.746606 -1.106551 -50.893157 5.081706 -48.533162 179.776781 -72.626549 -179.491716 0.000000 0.000000 0.000000 2.837149 1.237585 -0.725740 3.217221 9.530866 -6.532706 -1.165801 0.282998 1.858109 -51.169219 25.632018 85.957780 -179.815057 71.827909 179.330237 0.000000 0.000000 0.000000 
